<?xml version="1.0" encoding="UTF-8"?>
<!DOCTYPE svg PUBLIC "-//W3C//DTD SVG 1.1//EN" "http://www.w3.org/Graphics/SVG/1.1/DTD/svg11.dtd">
<svg xmlns="http://www.w3.org/2000/svg" version="1.1" width="331px" height="58px" style="shape-rendering:geometricPrecision; text-rendering:geometricPrecision; image-rendering:optimizeQuality; fill-rule:evenodd; clip-rule:evenodd" xmlns:xlink="http://www.w3.org/1999/xlink">
<g><path style="opacity:0.282" fill="#70ccff" d="M 56.5,20.5 C 56.5,20.1667 56.5,19.8333 56.5,19.5C 57.4959,19.4142 58.3292,19.7476 59,20.5C 59.4828,19.552 59.6495,18.552 59.5,17.5C 55.5,17.5 51.5,17.5 47.5,17.5C 46.8333,17.5 46.5,17.8333 46.5,18.5C 45.1667,18.5 43.8333,18.5 42.5,18.5C 42.5,23.5 42.5,28.5 42.5,33.5C 42.1667,33.5 41.8333,33.5 41.5,33.5C 41.5,28.1667 41.5,22.8333 41.5,17.5C 39.4458,17.3653 37.7791,18.032 36.5,19.5C 34.9504,18.2801 33.2837,18.2801 31.5,19.5C 30.8166,17.8235 29.4832,17.1568 27.5,17.5C 26.8333,17.5 26.5,17.8333 26.5,18.5C 25.5,18.5 24.5,18.5 23.5,18.5C 23.33,19.8221 23.6634,20.9887 24.5,22C 24,22.1667 23.5,22.3333 23,22.5C 21.8319,21.4911 20.6652,20.4911 19.5,19.5C 17.962,24.6983 18.2954,29.6983 20.5,34.5C 16.8333,35.8333 13.1667,35.8333 9.5,34.5C 10.325,33.6143 11.325,33.281 12.5,33.5C 12.5,28.8333 12.5,24.1667 12.5,19.5C 11.5,19.5 10.5,19.5 9.5,19.5C 10.5676,18.5655 11.901,18.2322 13.5,18.5C 13.5,23.8333 13.5,29.1667 13.5,34.5C 14.8333,34.5 16.1667,34.5 17.5,34.5C 17.5,29.1667 17.5,23.8333 17.5,18.5C 19.2952,17.3786 15.9619,17.0452 7.5,17.5C 7.28519,19.1788 7.95186,20.1788 9.5,20.5C 9.18897,21.4778 8.5223,22.1445 7.5,22.5C 6.53443,20.604 6.2011,18.604 6.5,16.5C 24.5,16.5 42.5,16.5 60.5,16.5C 60.8076,18.924 60.4742,21.2573 59.5,23.5C 58.265,22.6602 57.265,21.6602 56.5,20.5 Z M 36.5,27.5 C 36.5,29.1667 36.5,30.8333 36.5,32.5C 35.4324,33.4345 34.099,33.7678 32.5,33.5C 32.7394,31.5328 32.4061,29.6995 31.5,28C 33.1341,27.5065 34.8008,27.3398 36.5,27.5 Z M 36.5,19.5 C 36.5,21.1667 36.5,22.8333 36.5,24.5C 34.8008,24.6602 33.1341,24.4935 31.5,24C 32.7279,22.5098 32.7279,21.0098 31.5,19.5C 33.2837,18.2801 34.9504,18.2801 36.5,19.5 Z"/></g>
<g><path style="opacity:0.991" fill="#4ec1ff" d="M 9.5,19.5 C 9.5,19.8333 9.5,20.1667 9.5,20.5C 7.95186,20.1788 7.28519,19.1788 7.5,17.5C 15.9619,17.0452 19.2952,17.3786 17.5,18.5C 17.5,23.8333 17.5,29.1667 17.5,34.5C 16.1667,34.5 14.8333,34.5 13.5,34.5C 13.5,29.1667 13.5,23.8333 13.5,18.5C 11.901,18.2322 10.5676,18.5655 9.5,19.5 Z"/></g>
<g><path style="opacity:0.983" fill="#4dc0ff" d="M 47.5,17.5 C 51.5,17.5 55.5,17.5 59.5,17.5C 59.6495,18.552 59.4828,19.552 59,20.5C 58.3292,19.7476 57.4959,19.4142 56.5,19.5C 55.8333,19.5 55.1667,19.5 54.5,19.5C 53.791,18.596 52.791,18.2627 51.5,18.5C 51.1953,23.7616 51.5286,28.9283 52.5,34C 50.8659,34.4935 49.1992,34.6602 47.5,34.5C 47.5,28.8333 47.5,23.1667 47.5,17.5 Z"/></g>
<g><path style="opacity:0.853" fill="#59c4ff" d="M 80.5,19.5 C 79.1667,19.5 77.8333,19.5 76.5,19.5C 76.3398,21.1992 76.5065,22.8659 77,24.5C 77.4983,22.4556 78.665,21.1223 80.5,20.5C 80.5,22.8333 80.5,25.1667 80.5,27.5C 79.8826,27.6107 79.3826,27.944 79,28.5C 78.2904,27.0267 77.1238,26.3601 75.5,26.5C 75.2317,29.1194 75.565,31.6194 76.5,34C 74.8659,34.4935 73.1992,34.6602 71.5,34.5C 71.5,28.8333 71.5,23.1667 71.5,17.5C 75.5,17.5 79.5,17.5 83.5,17.5C 83.6495,18.552 83.4828,19.552 83,20.5C 82.3292,19.7476 81.4959,19.4142 80.5,19.5 Z M 80.5,19.5 C 80.5,19.8333 80.5,20.1667 80.5,20.5C 78.665,21.1223 77.4983,22.4556 77,24.5C 76.5065,22.8659 76.3398,21.1992 76.5,19.5C 77.8333,19.5 79.1667,19.5 80.5,19.5 Z"/></g>
<g><path style="opacity:0.983" fill="#58c4ff" d="M 97.5,23.5 C 99.0412,25.8784 100.375,28.3784 101.5,31C 101.333,31.8333 101.167,32.6667 101,33.5C 100.329,32.7476 99.4959,32.4142 98.5,32.5C 95.8644,29.6902 93.3644,26.6902 91,23.5C 90.5017,26.8168 90.335,30.1501 90.5,33.5C 91.675,33.281 92.675,33.6143 93.5,34.5C 90.8333,35.8333 88.1667,35.8333 85.5,34.5C 86.7243,31.8687 87.391,29.0354 87.5,26C 87.391,22.9646 86.7243,20.1313 85.5,17.5C 91.6363,15.3588 95.6363,17.3588 97.5,23.5 Z"/></g>
<g><path style="opacity:0.957" fill="#53c2ff" d="M 106.5,18.5 C 107.919,17.5489 109.585,17.2155 111.5,17.5C 111.187,20.2469 111.52,22.9135 112.5,25.5C 113.107,25.3764 113.44,25.0431 113.5,24.5C 115.399,19.36 116.399,19.86 116.5,26C 116.167,27.8333 115.833,29.6667 115.5,31.5C 113.105,26.006 112.105,26.3394 112.5,32.5C 112.611,33.1174 112.944,33.6174 113.5,34C 111.527,34.4955 109.527,34.6621 107.5,34.5C 107.821,28.9738 107.488,23.6405 106.5,18.5 Z"/></g>
<g><path style="opacity:0.975" fill="#5fc5ff" d="M 160.5,16.5 C 163.898,16.1796 167.232,16.513 170.5,17.5C 169.693,19.9606 170.193,22.2939 172,24.5C 173.167,22.8333 174.333,21.1667 175.5,19.5C 174.833,18.8333 174.167,18.1667 173.5,17.5C 175.833,16.1667 178.167,16.1667 180.5,17.5C 175.97,21.8913 173.637,27.2246 173.5,33.5C 174.675,33.281 175.675,33.6143 176.5,34.5C 172.5,35.8333 168.5,35.8333 164.5,34.5C 165.325,33.6143 166.325,33.281 167.5,33.5C 167.064,26.9723 164.731,21.3057 160.5,16.5 Z"/></g>
<g><path style="opacity:0.983" fill="#6cc8ff" d="M 237.5,25.5 C 237.833,27.5 238.167,29.5 238.5,31.5C 238.883,34.462 237.883,35.462 235.5,34.5C 234,30.8333 232.5,27.1667 231,23.5C 230.333,26.5 230.333,29.5 231,32.5C 231.925,33.0465 232.758,33.7132 233.5,34.5C 230.833,35.8333 228.167,35.8333 225.5,34.5C 226.724,31.8687 227.391,29.0354 227.5,26C 227.391,22.9646 226.724,20.1313 225.5,17.5C 233.117,14.7476 237.117,17.4142 237.5,25.5 Z"/></g>
<g><path style="opacity:0.83" fill="#59c4ff" d="M 299.5,18.5 C 300.5,17.1667 301.5,17.1667 302.5,18.5C 302.5,24.1667 302.5,29.8333 302.5,35.5C 301.325,35.719 300.325,35.3857 299.5,34.5C 296.904,30.9809 294.071,27.6475 291,24.5C 290.043,28.0987 290.543,31.432 292.5,34.5C 290.257,35.4742 287.924,35.8076 285.5,35.5C 284.449,34.7777 283.782,33.7777 283.5,32.5C 284.708,33.2341 286.041,33.5674 287.5,33.5C 287.666,28.8215 287.499,24.1548 287,19.5C 286.075,18.9535 285.242,18.2868 284.5,17.5C 287.106,16.3483 289.773,16.1816 292.5,17C 294.549,19.5934 296.715,22.0934 299,24.5C 299.495,22.5273 299.662,20.5273 299.5,18.5 Z"/></g>
<g><path style="opacity:0.985" fill="#60c6ff" d="M 302.5,18.5 C 301.5,17.1667 300.5,17.1667 299.5,18.5C 298.624,18.6309 297.957,18.2975 297.5,17.5C 302.833,16.1667 308.167,16.1667 313.5,17.5C 312.693,19.9606 313.193,22.2939 315,24.5C 316.167,22.8333 317.333,21.1667 318.5,19.5C 317.833,18.8333 317.167,18.1667 316.5,17.5C 318.833,16.1667 321.167,16.1667 323.5,17.5C 318.97,21.8913 316.637,27.2246 316.5,33.5C 317.675,33.281 318.675,33.6143 319.5,34.5C 315.5,35.8333 311.5,35.8333 307.5,34.5C 308.325,33.6143 309.325,33.281 310.5,33.5C 310.663,31.1432 310.497,28.8098 310,26.5C 308.414,24.3295 307.08,21.9962 306,19.5C 304.989,18.6634 303.822,18.33 302.5,18.5 Z"/></g>
<g><path style="opacity:0.985" fill="#5dc5ff" d="M 106.5,18.5 C 107.488,23.6405 107.821,28.9738 107.5,34.5C 109.527,34.6621 111.527,34.4955 113.5,34C 112.944,33.6174 112.611,33.1174 112.5,32.5C 116.224,33.2269 118.891,31.8936 120.5,28.5C 121.167,30.1667 121.833,31.8333 122.5,33.5C 123.086,33.2907 123.586,32.9574 124,32.5C 124.667,28.1667 124.667,23.8333 124,19.5C 123.075,18.9535 122.242,18.2868 121.5,17.5C 126.131,16.3384 130.798,16.1717 135.5,17C 140.419,19.9611 140.752,23.4611 136.5,27.5C 137.8,30.4323 139.8,32.7656 142.5,34.5C 139.833,35.8333 137.167,35.8333 134.5,34.5C 133,32.1667 131.5,29.8333 130,27.5C 128.91,30.579 129.743,32.9124 132.5,34.5C 125.728,34.9294 119.061,35.2627 112.5,35.5C 109.833,35.1667 107.167,34.8333 104.5,34.5C 106.379,29.4 107.046,24.0667 106.5,18.5 Z M 129.5,19.5 C 133.161,19.3501 134.161,20.8501 132.5,24C 131.552,24.4828 130.552,24.6495 129.5,24.5C 129.5,22.8333 129.5,21.1667 129.5,19.5 Z"/></g>
<g><path style="opacity:0.986" fill="#58c4ff" d="M 146.5,16.5 C 150.682,16.6697 154.682,16.6697 158.5,16.5C 159.833,18.8333 159.833,21.1667 158.5,23.5C 152.553,16.1491 148.886,17.1491 147.5,26.5C 147.003,30.1823 148.503,32.5157 152,33.5C 155.293,31.4641 155.127,29.4641 151.5,27.5C 154.833,26.1667 158.167,26.1667 161.5,27.5C 160.119,29.6349 159.119,31.9682 158.5,34.5C 146.491,37.9696 140.991,33.6362 142,21.5C 143.707,19.9625 145.207,18.2959 146.5,16.5 Z"/></g>
<g><path style="opacity:0.988" fill="#63c7ff" d="M 205.5,23.5 C 204.5,23.5 203.5,23.5 202.5,23.5C 202.594,20.4594 201.094,18.7928 198,18.5C 196.488,19.2567 195.154,20.2567 194,21.5C 192.977,25.3169 193.477,28.8169 195.5,32C 198.956,33.123 201.79,32.2896 204,29.5C 205.033,32.2175 204.2,34.0508 201.5,35C 190.184,37.0183 185.684,32.5183 188,21.5C 189.167,19.6667 190.667,18.1667 192.5,17C 196.989,16.8369 201.323,16.6703 205.5,16.5C 205.5,18.8333 205.5,21.1667 205.5,23.5 Z"/></g>
<g><path style="opacity:0.989" fill="#5dc5ff" d="M 221.5,18.5 C 219.952,18.8212 219.285,19.8212 219.5,21.5C 217.825,18.1103 215.659,17.777 213,20.5C 212.333,24.1667 212.333,27.8333 213,31.5C 214.488,33.8305 216.321,34.1638 218.5,32.5C 217.34,34.2027 218.007,34.8693 220.5,34.5C 210.843,37.4874 205.843,33.8207 205.5,23.5C 208.414,17.0512 213.414,14.8845 220.5,17C 221.056,17.3826 221.389,17.8826 221.5,18.5 Z"/></g>
<g><path style="opacity:0.984" fill="#5ac4ff" d="M 221.5,18.5 C 224.736,19.7944 226.069,22.2944 225.5,26C 225.692,29.9652 224.025,32.7985 220.5,34.5C 218.007,34.8693 217.34,34.2027 218.5,32.5C 219.344,28.9009 219.677,25.2343 219.5,21.5C 219.285,19.8212 219.952,18.8212 221.5,18.5 Z"/></g>
<g><path style="opacity:0.983" fill="#54c3ff" d="M 262.5,26.5 C 260.007,26.8693 259.34,26.2027 260.5,24.5C 259.833,17.8333 259.167,17.8333 258.5,24.5C 257.521,27.6248 257.187,30.9581 257.5,34.5C 256.167,34.5 254.833,34.5 253.5,34.5C 253.821,28.9738 253.488,23.6405 252.5,18.5C 251.167,18.5 249.833,18.5 248.5,18.5C 247.512,23.6405 247.179,28.9738 247.5,34.5C 246.167,34.5 244.833,34.5 243.5,34.5C 243.74,28.773 243.407,23.1064 242.5,17.5C 248.987,16.346 255.654,16.1794 262.5,17C 266.104,18.3339 267.271,20.8339 266,24.5C 265.184,25.8228 264.017,26.4894 262.5,26.5 Z M 260.5,24.5 C 259.833,24.5 259.167,24.5 258.5,24.5C 259.167,17.8333 259.833,17.8333 260.5,24.5 Z M 248.5,18.5 C 249.833,18.5 251.167,18.5 252.5,18.5C 252.5,23.5 252.5,28.5 252.5,33.5C 251.167,33.5 249.833,33.5 248.5,33.5C 248.5,28.5 248.5,23.5 248.5,18.5 Z"/></g>
<g><path style="opacity:0.873" fill="#58c4ff" d="M 283.5,32.5 C 283.782,33.7777 284.449,34.7777 285.5,35.5C 282.102,35.8204 278.768,35.487 275.5,34.5C 276.853,33.4763 277.52,32.143 277.5,30.5C 275.5,30.5 273.5,30.5 271.5,30.5C 271.48,32.143 272.147,33.4763 273.5,34.5C 270.833,35.8333 268.167,35.8333 265.5,34.5C 266.242,33.7132 267.075,33.0465 268,32.5C 270.462,27.2482 272.629,21.9148 274.5,16.5C 275.675,16.281 276.675,16.6143 277.5,17.5C 279.79,22.4086 281.79,27.4086 283.5,32.5 Z M 273.5,25.5 C 274.289,25.7828 274.956,26.2828 275.5,27C 274.184,27.5281 273.517,27.0281 273.5,25.5 Z"/></g>
<g><path style="opacity:0.328" fill="#63c8ff" d="M 113.5,24.5 C 113.44,25.0431 113.107,25.3764 112.5,25.5C 111.52,22.9135 111.187,20.2469 111.5,17.5C 109.585,17.2155 107.919,17.5489 106.5,18.5C 105.167,18.5 103.833,18.5 102.5,18.5C 102.829,24.2055 102.495,29.8722 101.5,35.5C 100.145,34.8118 99.1451,33.8118 98.5,32.5C 99.4959,32.4142 100.329,32.7476 101,33.5C 101.167,32.6667 101.333,31.8333 101.5,31C 100.375,28.3784 99.0412,25.8784 97.5,23.5C 99.1007,24.6428 99.7674,23.9761 99.5,21.5C 99.2104,19.9559 98.5437,18.6226 97.5,17.5C 105.138,16.5025 112.804,16.1692 120.5,16.5C 120.808,18.924 120.474,21.2573 119.5,23.5C 118.19,20.4391 115.857,19.1058 112.5,19.5C 112.216,21.4147 112.549,23.0813 113.5,24.5 Z"/></g>
<g><path style="opacity:0.281" fill="#62c7ff" d="M 27.5,17.5 C 27.8066,23.0934 27.4732,28.5934 26.5,34C 28.1667,34.6667 29.8333,34.6667 31.5,34C 30.565,31.6194 30.2317,29.1194 30.5,26.5C 32.7354,26.2053 34.7354,26.5386 36.5,27.5C 34.8008,27.3398 33.1341,27.5065 31.5,28C 32.4061,29.6995 32.7394,31.5328 32.5,33.5C 34.099,33.7678 35.4324,33.4345 36.5,32.5C 37.9764,34.4318 39.6431,34.7652 41.5,33.5C 41.8333,33.5 42.1667,33.5 42.5,33.5C 43.8333,33.5 45.1667,33.5 46.5,33.5C 46.5,28.5 46.5,23.5 46.5,18.5C 46.5,17.8333 46.8333,17.5 47.5,17.5C 47.5,23.1667 47.5,28.8333 47.5,34.5C 49.1992,34.6602 50.8659,34.4935 52.5,34C 51.5286,28.9283 51.1953,23.7616 51.5,18.5C 52.791,18.2627 53.791,18.596 54.5,19.5C 53.3509,19.7911 52.6842,20.6244 52.5,22C 52.6667,22.8333 52.8333,23.6667 53,24.5C 53.4983,22.4556 54.665,21.1223 56.5,20.5C 56.8226,24.226 56.4892,27.8927 55.5,31.5C 54.4164,30.3349 53.5831,29.0016 53,27.5C 52.5065,29.1341 52.3398,30.8008 52.5,32.5C 54.1992,32.6602 55.8659,32.4935 57.5,32C 58.1552,30.5134 59.1552,29.3467 60.5,28.5C 61.3635,30.7713 61.3635,33.1046 60.5,35.5C 48.1487,35.8324 35.8153,35.499 23.5,34.5C 24.2421,33.7132 25.0754,33.0465 26,32.5C 26.4992,27.8452 26.6658,23.1785 26.5,18.5C 26.5,17.8333 26.8333,17.5 27.5,17.5 Z M 46.5,18.5 C 46.5,23.5 46.5,28.5 46.5,33.5C 45.1667,33.5 43.8333,33.5 42.5,33.5C 42.5,28.5 42.5,23.5 42.5,18.5C 43.8333,18.5 45.1667,18.5 46.5,18.5 Z M 36.5,27.5 C 36.5,29.1667 36.5,30.8333 36.5,32.5C 35.4324,33.4345 34.099,33.7678 32.5,33.5C 32.7394,31.5328 32.4061,29.6995 31.5,28C 33.1341,27.5065 34.8008,27.3398 36.5,27.5 Z M 36.5,19.5 C 36.5,21.1667 36.5,22.8333 36.5,24.5C 34.8008,24.6602 33.1341,24.4935 31.5,24C 32.7279,22.5098 32.7279,21.0098 31.5,19.5C 33.2837,18.2801 34.9504,18.2801 36.5,19.5 Z"/></g>
<g><path style="opacity:0.886" fill="#52c1ff" d="M 27.5,17.5 C 29.4832,17.1568 30.8166,17.8235 31.5,19.5C 32.7279,21.0098 32.7279,22.5098 31.5,24C 33.1341,24.4935 34.8008,24.6602 36.5,24.5C 36.5,22.8333 36.5,21.1667 36.5,19.5C 37.7791,18.032 39.4458,17.3653 41.5,17.5C 41.5,22.8333 41.5,28.1667 41.5,33.5C 39.6431,34.7652 37.9764,34.4318 36.5,32.5C 36.5,30.8333 36.5,29.1667 36.5,27.5C 34.7354,26.5386 32.7354,26.2053 30.5,26.5C 30.2317,29.1194 30.565,31.6194 31.5,34C 29.8333,34.6667 28.1667,34.6667 26.5,34C 27.4732,28.5934 27.8066,23.0934 27.5,17.5 Z M 36.5,27.5 C 36.5,29.1667 36.5,30.8333 36.5,32.5C 35.4324,33.4345 34.099,33.7678 32.5,33.5C 32.7394,31.5328 32.4061,29.6995 31.5,28C 33.1341,27.5065 34.8008,27.3398 36.5,27.5 Z M 36.5,19.5 C 36.5,21.1667 36.5,22.8333 36.5,24.5C 34.8008,24.6602 33.1341,24.4935 31.5,24C 32.7279,22.5098 32.7279,21.0098 31.5,19.5C 33.2837,18.2801 34.9504,18.2801 36.5,19.5 Z"/></g>
<g><path style="opacity:0.26" fill="#65c8ff" d="M 80.5,20.5 C 80.5,20.1667 80.5,19.8333 80.5,19.5C 81.4959,19.4142 82.3292,19.7476 83,20.5C 83.4828,19.552 83.6495,18.552 83.5,17.5C 79.5,17.5 75.5,17.5 71.5,17.5C 71.5,23.1667 71.5,28.8333 71.5,34.5C 73.1992,34.6602 74.8659,34.4935 76.5,34C 75.565,31.6194 75.2317,29.1194 75.5,26.5C 77.1238,26.3601 78.2904,27.0267 79,28.5C 79.3826,27.944 79.8826,27.6107 80.5,27.5C 80.0187,32.5863 78.852,32.5863 77,27.5C 76.5065,29.1341 76.3398,30.8008 76.5,32.5C 78.1992,32.6602 79.8659,32.4935 81.5,32C 82.1552,30.5134 83.1552,29.3467 84.5,28.5C 85.3635,30.7713 85.3635,33.1046 84.5,35.5C 78.7945,35.8288 73.1278,35.4954 67.5,34.5C 68.325,33.6143 69.325,33.281 70.5,33.5C 70.5,28.5 70.5,23.5 70.5,18.5C 69.325,18.719 68.325,18.3857 67.5,17.5C 73.1278,16.5046 78.7945,16.1712 84.5,16.5C 84.8076,18.924 84.4742,21.2573 83.5,23.5C 82.265,22.6602 81.265,21.6602 80.5,20.5 Z"/></g>
<g><path style="opacity:0.284" fill="#65c8ff" d="M 242.5,17.5 C 243.407,23.1064 243.74,28.773 243.5,34.5C 244.833,34.5 246.167,34.5 247.5,34.5C 247.179,28.9738 247.512,23.6405 248.5,18.5C 248.5,23.5 248.5,28.5 248.5,33.5C 249.833,33.5 251.167,33.5 252.5,33.5C 252.5,28.5 252.5,23.5 252.5,18.5C 253.488,23.6405 253.821,28.9738 253.5,34.5C 254.833,34.5 256.167,34.5 257.5,34.5C 257.187,30.9581 257.521,27.6248 258.5,24.5C 259.167,24.5 259.833,24.5 260.5,24.5C 259.34,26.2027 260.007,26.8693 262.5,26.5C 261.432,27.4345 260.099,27.7678 258.5,27.5C 258.16,30.1441 258.827,32.4775 260.5,34.5C 253.833,35.8333 247.167,35.8333 240.5,34.5C 242.457,31.432 242.957,28.0987 242,24.5C 241.33,27.1739 240.163,29.5073 238.5,31.5C 238.167,29.5 237.833,27.5 237.5,25.5C 239.68,23.1367 241.347,20.47 242.5,17.5 Z M 248.5,18.5 C 249.833,18.5 251.167,18.5 252.5,18.5C 252.5,23.5 252.5,28.5 252.5,33.5C 251.167,33.5 249.833,33.5 248.5,33.5C 248.5,28.5 248.5,23.5 248.5,18.5 Z"/></g>
</svg>
