<?xml version="1.0" encoding="UTF-8"?>
<!DOCTYPE svg PUBLIC "-//W3C//DTD SVG 1.1//EN" "http://www.w3.org/Graphics/SVG/1.1/DTD/svg11.dtd">
<svg xmlns="http://www.w3.org/2000/svg" version="1.1" width="1323px" height="233px" style="shape-rendering:geometricPrecision; text-rendering:geometricPrecision; image-rendering:optimizeQuality; fill-rule:evenodd; clip-rule:evenodd" xmlns:xlink="http://www.w3.org/1999/xlink">
<g><path style="opacity:1" fill="#63c5ff" d="M 635.5,69.5 C 636.166,73.3188 636.499,77.3188 636.5,81.5C 636.491,85.893 635.824,89.893 634.5,93.5C 627.722,76.2742 615.722,70.7742 598.5,77C 590.808,85.2344 587.141,95.0677 587.5,106.5C 587.635,114.593 589.468,122.259 593,129.5C 600.226,137.359 609.059,139.693 619.5,136.5C 619.666,129.825 619.5,123.158 619,116.5C 616.567,114.374 613.734,113.041 610.5,112.5C 610.667,112.167 610.833,111.833 611,111.5C 622.419,110.512 633.919,110.179 645.5,110.5C 645.5,111.5 645.5,112.5 645.5,113.5C 642.154,113.435 639.654,114.768 638,117.5C 637.813,124.081 637.313,130.581 636.5,137C 619.401,144.159 602.401,144.159 585.5,137C 569.668,125.835 564.834,111.002 571,92.5C 578.347,76.9832 590.681,68.9832 608,68.5C 615.446,69.0394 622.613,70.706 629.5,73.5C 630.5,73.3333 631.5,73.1667 632.5,73C 633.163,71.4815 634.163,70.3149 635.5,69.5 Z"/></g>
<g><path style="opacity:1" fill="#62c5ff" d="M 788.5,68.5 C 796.054,69.2219 803.387,70.8886 810.5,73.5C 813.399,73.7685 814.899,72.4352 815,69.5C 815.718,68.5494 816.551,68.3828 817.5,69C 818.482,77.081 818.816,85.2476 818.5,93.5C 817.178,93.67 816.011,93.3366 815,92.5C 808.965,75.7313 797.798,70.8979 781.5,78C 775.225,83.3826 771.725,90.2159 771,98.5C 769.785,109.001 771.452,119.001 776,128.5C 782.148,135.993 789.982,138.493 799.5,136C 806.101,133.78 811.601,129.947 816,124.5C 816.667,126.833 816.667,129.167 816,131.5C 805.041,141.781 792.208,144.948 777.5,141C 754.588,132.34 746.755,116.174 754,92.5C 761.029,77.9565 772.529,69.9565 788.5,68.5 Z"/></g>
<g><path style="opacity:1" fill="#5ec4ff" d="M 1103.5,69.5 C 1106.05,69.5608 1107.55,70.8941 1108,73.5C 1116.73,93.951 1125.73,114.284 1135,134.5C 1137.04,136.436 1139.2,138.102 1141.5,139.5C 1130.17,140.833 1118.83,140.833 1107.5,139.5C 1109.77,138.515 1112.11,137.681 1114.5,137C 1115.06,136.275 1115.39,135.442 1115.5,134.5C 1113.84,130.505 1112.17,126.505 1110.5,122.5C 1102.17,121.167 1093.83,121.167 1085.5,122.5C 1084.01,125.97 1082.68,129.47 1081.5,133C 1082.13,133.75 1082.63,134.584 1083,135.5C 1085.78,136.895 1088.62,138.228 1091.5,139.5C 1083.53,140.498 1075.53,140.831 1067.5,140.5C 1067.5,139.5 1067.5,138.5 1067.5,137.5C 1071.56,137.276 1074.39,135.276 1076,131.5C 1085.45,110.93 1094.62,90.2629 1103.5,69.5 Z M 1097.5,94.5 C 1101.58,101.019 1104.91,108.019 1107.5,115.5C 1101.19,116.664 1094.86,116.831 1088.5,116C 1091.99,109.017 1094.99,101.851 1097.5,94.5 Z"/></g>
<g><path style="opacity:0.282" fill="#cdedff" d="M 93.5,70.5 C 94.4907,76.979 94.824,83.6457 94.5,90.5C 93.209,90.7373 92.209,90.404 91.5,89.5C 93.4533,83.9262 94.12,77.9262 93.5,71.5C 93.5,71.1667 93.5,70.8333 93.5,70.5 Z"/></g>
<g><path style="opacity:0.612" fill="#9cdcff" d="M 130.5,73.5 C 131.952,72.6981 133.618,72.1981 135.5,72C 123.326,71.1737 111.326,71.3403 99.5,72.5C 98.9569,72.44 98.6236,72.1067 98.5,71.5C 111.149,70.5009 123.816,70.1676 136.5,70.5C 136.5,71.5 136.5,72.5 136.5,73.5C 134.5,73.5 132.5,73.5 130.5,73.5 Z"/></g>
<g><path style="opacity:0.612" fill="#95daff" d="M 140.5,71.5 C 152.655,70.5048 164.989,70.1714 177.5,70.5C 177.5,71.5 177.5,72.5 177.5,73.5C 175.5,73.5 173.5,73.5 171.5,73.5C 172.952,72.6981 174.618,72.1981 176.5,72C 164.505,71.5001 152.505,71.3335 140.5,71.5 Z"/></g>
<g><path style="opacity:0.612" fill="#a7dfff" d="M 334.5,91.5 C 334.5,84.8333 334.5,78.1667 334.5,71.5C 314.993,71.1697 295.659,71.503 276.5,72.5C 275.957,72.44 275.624,72.1067 275.5,71.5C 295.489,70.5004 315.489,70.167 335.5,70.5C 335.825,77.6866 335.491,84.6866 334.5,91.5 Z"/></g>
<g><path style="opacity:0.612" fill="#98dbff" d="M 417.5,71.5 C 409.648,71.1746 401.982,71.508 394.5,72.5C 393.957,72.44 393.624,72.1067 393.5,71.5C 401.657,70.1796 409.657,70.1796 417.5,71.5 Z"/></g>
<g><path style="opacity:0.51" fill="#a7e0ff" d="M 534.5,71.5 C 520.163,71.3334 505.829,71.5001 491.5,72C 492.737,72.2321 493.737,72.7321 494.5,73.5C 493.167,73.5 491.833,73.5 490.5,73.5C 490.5,72.5 490.5,71.5 490.5,70.5C 505.343,70.1707 520.01,70.504 534.5,71.5 Z"/></g>
<g><path style="opacity:0.612" fill="#93d9ff" d="M 675.5,73.5 C 676.609,72.71 677.942,72.21 679.5,72C 668.833,71.3333 658.167,71.3333 647.5,72C 648.056,72.3826 648.389,72.8826 648.5,73.5C 646.952,73.1788 646.285,72.1788 646.5,70.5C 657.833,70.5 669.167,70.5 680.5,70.5C 680.5,71.5 680.5,72.5 680.5,73.5C 678.833,73.5 677.167,73.5 675.5,73.5 Z"/></g>
<g><path style="opacity:0.612" fill="#9eddff" d="M 718.5,73.5 C 718.918,72.7784 719.584,72.2784 720.5,72C 713.5,71.3333 706.5,71.3333 699.5,72C 700.737,72.2321 701.737,72.7321 702.5,73.5C 701.167,73.5 699.833,73.5 698.5,73.5C 698.5,72.5 698.5,71.5 698.5,70.5C 706.167,70.5 713.833,70.5 721.5,70.5C 721.5,71.5 721.5,72.5 721.5,73.5C 720.5,73.5 719.5,73.5 718.5,73.5 Z"/></g>
<g><path style="opacity:1" fill="#5ec4ff" d="M 855.5,69.5 C 885.533,67.0444 900.7,80.7111 901,110.5C 897.07,130.599 884.903,141.265 864.5,142.5C 840.681,141.681 828.014,129.348 826.5,105.5C 827.653,86.4797 837.319,74.4797 855.5,69.5 Z M 861.5,73.5 C 873.35,74.1817 879.85,80.515 881,92.5C 881.667,101.167 881.667,109.833 881,118.5C 879.399,133.864 871.232,139.697 856.5,136C 850.893,131.531 847.727,125.698 847,118.5C 845.885,107.366 846.551,96.3659 849,85.5C 851.111,79.2195 855.278,75.2195 861.5,73.5 Z"/></g>
<g><path style="opacity:0.612" fill="#97dbff" d="M 935.5,72.5 C 925.735,71.1835 916.068,71.1835 906.5,72.5C 905.957,72.44 905.624,72.1067 905.5,71.5C 910.5,71.1667 915.5,70.8333 920.5,70.5C 925.881,70.5058 930.881,71.1725 935.5,72.5 Z"/></g>
<g><path style="opacity:0.612" fill="#99dbff" d="M 1192.5,71.5 C 1200.34,70.1796 1208.34,70.1796 1216.5,71.5C 1216.38,72.1067 1216.04,72.44 1215.5,72.5C 1208.02,71.508 1200.35,71.1746 1192.5,71.5 Z"/></g>
<g><path style="opacity:0.612" fill="#96daff" d="M 1218.5,71.5 C 1229.65,70.5052 1240.99,70.1719 1252.5,70.5C 1252.5,71.5 1252.5,72.5 1252.5,73.5C 1250.83,73.5 1249.17,73.5 1247.5,73.5C 1248.61,72.71 1249.94,72.21 1251.5,72C 1240.51,71.5002 1229.51,71.3335 1218.5,71.5 Z"/></g>
<g><path style="opacity:0.612" fill="#95daff" d="M 1292.5,71.5 C 1285.49,71.3337 1278.49,71.5004 1271.5,72C 1272.06,72.3826 1272.39,72.8826 1272.5,73.5C 1270.95,73.1788 1270.29,72.1788 1270.5,70.5C 1278.02,70.175 1285.35,70.5084 1292.5,71.5 Z"/></g>
<g><path style="opacity:0.282" fill="#b4e4ff" d="M 93.5,70.5 C 93.5,70.8333 93.5,71.1667 93.5,71.5C 72.8333,71.5 52.1667,71.5 31.5,71.5C 31.5,77.5 31.5,83.5 31.5,89.5C 30.5098,83.3554 30.1765,77.0221 30.5,70.5C 51.5,70.5 72.5,70.5 93.5,70.5 Z"/></g>
<g><path style="opacity:1" fill="#5bc3ff" d="M 93.5,71.5 C 94.12,77.9262 93.4533,83.9262 91.5,89.5C 90.6898,82.528 87.0231,77.8613 80.5,75.5C 77.3752,74.5206 74.0419,74.1872 70.5,74.5C 70.1696,94.3404 70.5029,114.007 71.5,133.5C 71.5106,135.017 72.1772,136.184 73.5,137C 76.1897,137.771 78.8564,138.604 81.5,139.5C 81.2907,140.086 80.9574,140.586 80.5,141C 68.5,141.667 56.5,141.667 44.5,141C 44.0426,140.586 43.7093,140.086 43.5,139.5C 46.9916,138.839 50.1583,137.506 53,135.5C 53.5,115.503 53.6666,95.5028 53.5,75.5C 42.2524,73.7802 35.5858,78.4469 33.5,89.5C 32.7435,90.7733 32.0768,90.7733 31.5,89.5C 31.5,83.5 31.5,77.5 31.5,71.5C 52.1667,71.5 72.8333,71.5 93.5,71.5 Z"/></g>
<g><path style="opacity:1" fill="#5dc4ff" d="M 130.5,73.5 C 129.206,74.2899 128.039,75.2899 127,76.5C 126.5,85.1603 126.334,93.8269 126.5,102.5C 134.5,102.5 142.5,102.5 150.5,102.5C 150.764,93.4538 150.264,84.4538 149,75.5C 145.851,74.4385 143.018,73.1052 140.5,71.5C 152.505,71.3335 164.505,71.5001 176.5,72C 174.618,72.1981 172.952,72.6981 171.5,73.5C 169.856,74.3164 168.69,75.6498 168,77.5C 167.333,96.5 167.333,115.5 168,134.5C 170.484,137.278 173.651,138.611 177.5,138.5C 177.5,139.5 177.5,140.5 177.5,141.5C 165.167,141.5 152.833,141.5 140.5,141.5C 140.5,140.5 140.5,139.5 140.5,138.5C 143.747,138.585 146.581,137.585 149,135.5C 150.316,126.218 150.816,116.884 150.5,107.5C 142.5,107.5 134.5,107.5 126.5,107.5C 126.334,116.839 126.5,126.173 127,135.5C 129.954,137.205 133.121,138.538 136.5,139.5C 136.333,139.833 136.167,140.167 136,140.5C 123.667,141.833 111.333,141.833 99,140.5C 98.8333,140.167 98.6667,139.833 98.5,139.5C 101.992,138.839 105.158,137.506 108,135.5C 108.667,115.833 108.667,96.1667 108,76.5C 107.5,75.3333 106.667,74.5 105.5,74C 103.292,73.8091 101.292,73.3091 99.5,72.5C 111.326,71.3403 123.326,71.1737 135.5,72C 133.618,72.1981 131.952,72.6981 130.5,73.5 Z"/></g>
<g><path style="opacity:1" fill="#67c7ff" d="M 207.5,75.5 C 206.506,84.6517 206.173,93.985 206.5,103.5C 208.735,103.795 210.735,103.461 212.5,102.5C 214.735,101.772 216.568,100.439 218,98.5C 219.79,94.6732 220.956,90.6732 221.5,86.5C 222.5,86.5 223.5,86.5 224.5,86.5C 224.5,98.8333 224.5,111.167 224.5,123.5C 223.5,123.5 222.5,123.5 221.5,123.5C 221.076,118.808 219.576,114.475 217,110.5C 214.123,108.596 210.956,107.596 207.5,107.5C 207.334,116.173 207.5,124.84 208,133.5C 210.133,135.853 212.8,136.853 216,136.5C 229.568,136.643 238.401,130.31 242.5,117.5C 243.5,117.833 244.167,118.5 244.5,119.5C 243.196,126.46 242.029,133.46 241,140.5C 220.909,141.493 200.743,141.827 180.5,141.5C 180.5,140.5 180.5,139.5 180.5,138.5C 183.747,138.585 186.581,137.585 189,135.5C 189.667,115.5 189.667,95.5 189,75.5C 186.435,73.8207 183.602,73.154 180.5,73.5C 180.5,72.5 180.5,71.5 180.5,70.5C 200.167,70.5 219.833,70.5 239.5,70.5C 239.666,77.5079 239.5,84.5079 239,91.5C 238.586,91.9574 238.086,92.2907 237.5,92.5C 236.019,87.5585 233.686,83.0585 230.5,79C 228.283,77.7246 225.949,76.7246 223.5,76C 218.177,75.5006 212.844,75.334 207.5,75.5 Z"/></g>
<g><path style="opacity:1" fill="#64c6ff" d="M 334.5,91.5 C 333.923,92.7733 333.257,92.7733 332.5,91.5C 331.316,87.4431 329.649,83.6098 327.5,80C 324.274,77.4246 320.607,75.9246 316.5,75.5C 312.03,74.5139 307.363,74.1805 302.5,74.5C 302.5,84.1667 302.5,93.8333 302.5,103.5C 304.735,103.795 306.735,103.461 308.5,102.5C 314.258,99.3024 317.258,94.3024 317.5,87.5C 318.325,86.6143 319.325,86.281 320.5,86.5C 320.5,98.8333 320.5,111.167 320.5,123.5C 319.325,123.719 318.325,123.386 317.5,122.5C 316.857,113.529 312.191,108.529 303.5,107.5C 303.194,116.554 303.528,125.554 304.5,134.5C 312.717,137.135 320.717,136.468 328.5,132.5C 331.167,131.833 332.833,130.167 333.5,127.5C 335.168,124.162 336.834,120.828 338.5,117.5C 339.294,125.447 338.627,133.28 336.5,141C 316.5,141.667 296.5,141.667 276.5,141C 276.043,140.586 275.709,140.086 275.5,139.5C 278.992,138.839 282.158,137.506 285,135.5C 285.667,115.833 285.667,96.1667 285,76.5C 284.5,75.3333 283.667,74.5 282.5,74C 280.292,73.8091 278.292,73.3091 276.5,72.5C 295.659,71.503 314.993,71.1697 334.5,71.5C 334.5,78.1667 334.5,84.8333 334.5,91.5 Z"/></g>
<g><path style="opacity:1" fill="#5fc5ff" d="M 394.5,72.5 C 401.982,71.508 409.648,71.1746 417.5,71.5C 416.019,73.2469 414.019,74.4136 411.5,75C 410.107,76.1711 409.273,77.6711 409,79.5C 408.5,100.497 408.333,121.497 408.5,142.5C 407.178,142.67 406.011,142.337 405,141.5C 390.38,122.544 375.38,103.878 360,85.5C 359.333,99.8333 359.333,114.167 360,128.5C 360.097,135.431 363.597,138.764 370.5,138.5C 370.5,139.5 370.5,140.5 370.5,141.5C 362.167,141.5 353.833,141.5 345.5,141.5C 345.281,140.325 345.614,139.325 346.5,138.5C 351.238,138.392 354.071,136.058 355,131.5C 355.667,114.167 355.667,96.8333 355,79.5C 353.189,75.345 350.023,73.345 345.5,73.5C 345.5,72.5 345.5,71.5 345.5,70.5C 353.84,70.3336 362.173,70.5003 370.5,71C 381.333,84.5 392.167,98 403,111.5C 403.667,100.167 403.667,88.8333 403,77.5C 402.626,76.5838 402.126,75.7504 401.5,75C 399.073,74.0977 396.74,73.2644 394.5,72.5 Z"/></g>
<g><path style="opacity:1" fill="#67c7ff" d="M 448.5,75.5 C 447.506,84.6517 447.173,93.985 447.5,103.5C 449.735,103.795 451.735,103.461 453.5,102.5C 455.735,101.772 457.568,100.439 459,98.5C 460.79,94.6732 461.956,90.6732 462.5,86.5C 463.5,86.5 464.5,86.5 465.5,86.5C 465.5,98.8333 465.5,111.167 465.5,123.5C 464.5,123.5 463.5,123.5 462.5,123.5C 462.076,118.808 460.576,114.475 458,110.5C 455.123,108.596 451.956,107.596 448.5,107.5C 448.334,116.173 448.5,124.84 449,133.5C 451.133,135.853 453.8,136.853 457,136.5C 470.474,136.513 479.307,130.18 483.5,117.5C 484.5,117.833 485.167,118.5 485.5,119.5C 484.196,126.46 483.029,133.46 482,140.5C 461.909,141.493 441.743,141.827 421.5,141.5C 421.5,140.5 421.5,139.5 421.5,138.5C 424.747,138.585 427.581,137.585 430,135.5C 430.667,115.5 430.667,95.5 430,75.5C 427.435,73.8207 424.602,73.154 421.5,73.5C 421.5,72.5 421.5,71.5 421.5,70.5C 441.167,70.5 460.833,70.5 480.5,70.5C 480.666,77.5079 480.5,84.5079 480,91.5C 479.586,91.9574 479.086,92.2907 478.5,92.5C 477.019,87.5585 474.686,83.0585 471.5,79C 469.283,77.7246 466.949,76.7246 464.5,76C 459.177,75.5006 453.844,75.334 448.5,75.5 Z"/></g>
<g><path style="opacity:1" fill="#5bc3ff" d="M 534.5,71.5 C 546.903,71.6812 553.903,77.8479 555.5,90C 554.516,99.3199 549.516,105.32 540.5,108C 547,117.167 553.5,126.333 560,135.5C 562.406,136.565 564.573,137.898 566.5,139.5C 566.291,140.086 565.957,140.586 565.5,141C 558.5,141.667 551.5,141.667 544.5,141C 536.615,130.622 528.949,120.122 521.5,109.5C 520.081,108.549 518.415,108.216 516.5,108.5C 516.174,116.684 516.508,124.684 517.5,132.5C 517.751,134.17 518.418,135.67 519.5,137C 522.362,137.27 525.028,138.104 527.5,139.5C 527.291,140.086 526.957,140.586 526.5,141C 514.833,141.667 503.167,141.667 491.5,141C 491.043,140.586 490.709,140.086 490.5,139.5C 493.043,138.197 495.71,137.197 498.5,136.5C 499.251,135.624 499.751,134.624 500,133.5C 500.667,114.833 500.667,96.1667 500,77.5C 498.982,75.0718 497.148,73.7385 494.5,73.5C 493.737,72.7321 492.737,72.2321 491.5,72C 505.829,71.5001 520.163,71.3334 534.5,71.5 Z M 526.5,75.5 C 534.598,76.8286 538.264,81.6619 537.5,90C 538.209,97.7796 534.876,102.613 527.5,104.5C 524.167,104.5 520.833,104.5 517.5,104.5C 517.5,94.8333 517.5,85.1667 517.5,75.5C 520.5,75.5 523.5,75.5 526.5,75.5 Z"/></g>
<g><path style="opacity:1" fill="#61c5ff" d="M 675.5,73.5 C 673.354,75.0793 673.188,77.0793 675,79.5C 679.746,88.6611 684.746,97.6611 690,106.5C 695.585,97.665 700.919,88.665 706,79.5C 707.153,76.1518 705.986,74.1518 702.5,73.5C 701.737,72.7321 700.737,72.2321 699.5,72C 706.5,71.3333 713.5,71.3333 720.5,72C 719.584,72.2784 718.918,72.7784 718.5,73.5C 717.115,74.6138 715.615,75.6138 714,76.5C 706.748,88.0009 699.748,99.6676 693,111.5C 692.333,119.167 692.333,126.833 693,134.5C 693.374,135.416 693.874,136.25 694.5,137C 697.432,137.953 700.432,138.453 703.5,138.5C 703.5,139.5 703.5,140.5 703.5,141.5C 690.254,141.823 677.087,141.489 664,140.5C 663.833,140.167 663.667,139.833 663.5,139.5C 667.351,138.951 670.851,137.618 674,135.5C 674.667,128.167 674.667,120.833 674,113.5C 667.099,100.112 659.599,87.1125 651.5,74.5C 650.583,73.8728 649.583,73.5394 648.5,73.5C 648.389,72.8826 648.056,72.3826 647.5,72C 658.167,71.3333 668.833,71.3333 679.5,72C 677.942,72.21 676.609,72.71 675.5,73.5 Z"/></g>
<g><path style="opacity:1" fill="#62c5ff" d="M 974.5,133.5 C 975.662,115.005 975.829,96.3379 975,77.5C 974.487,78.5266 973.987,79.5266 973.5,80.5C 965.553,101.061 957.053,121.394 948,141.5C 938.485,121.798 929.485,101.798 921,81.5C 920.333,98.8333 920.333,116.167 921,133.5C 923.237,136.758 926.403,138.425 930.5,138.5C 930.5,139.5 930.5,140.5 930.5,141.5C 922.493,141.666 914.493,141.5 906.5,141C 906.043,140.586 905.709,140.086 905.5,139.5C 908.115,138.238 910.782,137.072 913.5,136C 914.126,135.25 914.626,134.416 915,133.5C 915.667,114.5 915.667,95.5 915,76.5C 914.5,75.3333 913.667,74.5 912.5,74C 910.292,73.8091 908.292,73.3091 906.5,72.5C 916.068,71.1835 925.735,71.1835 935.5,72.5C 942.012,86.1998 948.012,100.2 953.5,114.5C 954.301,116.793 954.968,116.46 955.5,113.5C 960.769,99.3637 966.436,85.3637 972.5,71.5C 982.144,70.5016 991.81,70.1682 1001.5,70.5C 1001.5,71.5 1001.5,72.5 1001.5,73.5C 997.987,72.8757 995.153,73.8757 993,76.5C 992.333,96.1667 992.333,115.833 993,135.5C 995.419,137.585 998.253,138.585 1001.5,138.5C 1001.5,139.5 1001.5,140.5 1001.5,141.5C 989.495,141.667 977.495,141.5 965.5,141C 965.043,140.586 964.709,140.086 964.5,139.5C 967.062,138.359 969.728,137.526 972.5,137C 973.305,135.887 973.972,134.721 974.5,133.5 Z"/></g>
<g><path style="opacity:1" fill="#60c5ff" d="M 1005.5,70.5 C 1018.17,70.3334 1030.84,70.5001 1043.5,71C 1061.65,73.8115 1067.48,83.6449 1061,100.5C 1057.73,103.883 1053.9,106.383 1049.5,108C 1043.56,109.162 1037.56,109.662 1031.5,109.5C 1031.33,117.507 1031.5,125.507 1032,133.5C 1032.25,134.624 1032.75,135.624 1033.5,136.5C 1035.64,137.243 1037.8,137.91 1040,138.5C 1041.26,138.85 1041.59,139.517 1041,140.5C 1029.25,141.488 1017.41,141.821 1005.5,141.5C 1005.5,140.5 1005.5,139.5 1005.5,138.5C 1008.67,138.336 1011.51,137.336 1014,135.5C 1014.67,115.833 1014.67,96.1667 1014,76.5C 1011.85,73.8757 1009.01,72.8757 1005.5,73.5C 1005.5,72.5 1005.5,71.5 1005.5,70.5 Z M 1043.5,79.5 C 1043.93,80.7095 1044.6,81.7095 1045.5,82.5C 1047.33,89.1838 1046.5,95.5171 1043,101.5C 1039.59,104.014 1035.75,105.014 1031.5,104.5C 1031.5,94.8333 1031.5,85.1667 1031.5,75.5C 1036.21,75.0687 1040.21,76.402 1043.5,79.5 Z"/></g>
<g><path style="opacity:1" fill="#5bc4ff" d="M 1192.5,71.5 C 1200.35,71.1746 1208.02,71.508 1215.5,72.5C 1210.14,73.033 1207.3,76.033 1207,81.5C 1206.5,101.831 1206.33,122.164 1206.5,142.5C 1203.96,141.532 1201.79,139.865 1200,137.5C 1186.29,120.625 1172.79,103.625 1159.5,86.5C 1159.22,85.7109 1158.72,85.0442 1158,84.5C 1157.17,100.672 1157.34,116.672 1158.5,132.5C 1160.5,136.507 1163.83,138.507 1168.5,138.5C 1168.5,139.5 1168.5,140.5 1168.5,141.5C 1160.17,141.5 1151.83,141.5 1143.5,141.5C 1143.28,140.325 1143.61,139.325 1144.5,138.5C 1146.89,137.82 1149.22,136.986 1151.5,136C 1152.19,134.933 1152.69,133.766 1153,132.5C 1153.67,114.5 1153.67,96.5 1153,78.5C 1150.71,75.1078 1147.55,73.4411 1143.5,73.5C 1143.5,72.5 1143.5,71.5 1143.5,70.5C 1151.84,70.3336 1160.17,70.5003 1168.5,71C 1179.67,84.8333 1190.83,98.6667 1202,112.5C 1202.67,101.833 1202.67,91.1667 1202,80.5C 1201.84,78.324 1201,76.4907 1199.5,75C 1196.7,74.385 1194.36,73.2183 1192.5,71.5 Z"/></g>
<g><path style="opacity:1" fill="#61c5ff" d="M 1218.5,71.5 C 1229.51,71.3335 1240.51,71.5002 1251.5,72C 1249.94,72.21 1248.61,72.71 1247.5,73.5C 1245.73,74.3143 1245.23,75.6476 1246,77.5C 1250.93,87.4208 1256.27,97.0875 1262,106.5C 1267.92,96.9121 1273.42,87.0788 1278.5,77C 1277.31,74.5693 1275.31,73.4027 1272.5,73.5C 1272.39,72.8826 1272.06,72.3826 1271.5,72C 1278.49,71.5004 1285.49,71.3337 1292.5,71.5C 1290.06,73.3384 1287.56,75.3384 1285,77.5C 1278.58,88.6663 1271.92,99.6663 1265,110.5C 1264.33,118.833 1264.33,127.167 1265,135.5C 1268.04,137.929 1271.54,138.929 1275.5,138.5C 1275.5,139.5 1275.5,140.5 1275.5,141.5C 1262.17,141.5 1248.83,141.5 1235.5,141.5C 1235.5,140.5 1235.5,139.5 1235.5,138.5C 1239.46,138.929 1242.96,137.929 1246,135.5C 1246.67,128.167 1246.67,120.833 1246,113.5C 1239.75,102.66 1233.75,91.6601 1228,80.5C 1225.54,76.5337 1222.37,73.5337 1218.5,71.5 Z"/></g>
<g><path style="opacity:0.282" fill="#c5eaff" d="M 80.5,75.5 C 77.5,75.5 74.5,75.5 71.5,75.5C 71.5,94.8333 71.5,114.167 71.5,133.5C 70.5029,114.007 70.1696,94.3404 70.5,74.5C 74.0419,74.1872 77.3752,74.5206 80.5,75.5 Z"/></g>
<g><path style="opacity:0.51" fill="#a2deff" d="M 316.5,75.5 C 312.167,75.5 307.833,75.5 303.5,75.5C 303.5,84.5 303.5,93.5 303.5,102.5C 305.167,102.5 306.833,102.5 308.5,102.5C 306.735,103.461 304.735,103.795 302.5,103.5C 302.5,93.8333 302.5,84.1667 302.5,74.5C 307.363,74.1805 312.03,74.5139 316.5,75.5 Z"/></g>
<g><path style="opacity:0.612" fill="#9cdcff" d="M 526.5,75.5 C 523.5,75.5 520.5,75.5 517.5,75.5C 517.5,85.1667 517.5,94.8333 517.5,104.5C 520.833,104.5 524.167,104.5 527.5,104.5C 524.038,105.482 520.371,105.815 516.5,105.5C 516.5,95.1667 516.5,84.8333 516.5,74.5C 520.042,74.1872 523.375,74.5206 526.5,75.5 Z"/></g>
<g><path style="opacity:0.882" fill="#b4e2ff" d="M 1043.5,79.5 C 1045.05,79.8212 1045.71,80.8212 1045.5,82.5C 1044.6,81.7095 1043.93,80.7095 1043.5,79.5 Z"/></g>
<g><path style="opacity:0.612" fill="#91d8ff" d="M 635.5,69.5 C 635.56,68.9569 635.893,68.6236 636.5,68.5C 637.498,77.1411 637.831,85.8078 637.5,94.5C 636.209,94.7373 635.209,94.404 634.5,93.5C 635.824,89.893 636.491,85.893 636.5,81.5C 636.499,77.3188 636.166,73.3188 635.5,69.5 Z"/></g>
<g><path style="opacity:0.169" fill="#daf2ff" d="M 1159.5,86.5 C 1158.5,101.658 1158.17,116.991 1158.5,132.5C 1157.34,116.672 1157.17,100.672 1158,84.5C 1158.72,85.0442 1159.22,85.7109 1159.5,86.5 Z"/></g>
<g><path style="opacity:0.745" fill="#86d4ff" d="M 448.5,75.5 C 448.5,84.5 448.5,93.5 448.5,102.5C 450.167,102.5 451.833,102.5 453.5,102.5C 451.735,103.461 449.735,103.795 447.5,103.5C 447.173,93.985 447.506,84.6517 448.5,75.5 Z"/></g>
<g><path style="opacity:0.745" fill="#7ed1ff" d="M 974.5,133.5 C 974.83,115.659 974.497,97.9921 973.5,80.5C 973.987,79.5266 974.487,78.5266 975,77.5C 975.829,96.3379 975.662,115.005 974.5,133.5 Z"/></g>
<g><path style="opacity:0.745" fill="#86d4ff" d="M 207.5,75.5 C 207.5,84.5 207.5,93.5 207.5,102.5C 209.167,102.5 210.833,102.5 212.5,102.5C 210.735,103.461 208.735,103.795 206.5,103.5C 206.173,93.985 206.506,84.6517 207.5,75.5 Z"/></g>
<g><path style="opacity:0.51" fill="#a0deff" d="M 521.5,109.5 C 520.167,109.5 518.833,109.5 517.5,109.5C 517.5,117.167 517.5,124.833 517.5,132.5C 516.508,124.684 516.174,116.684 516.5,108.5C 518.415,108.216 520.081,108.549 521.5,109.5 Z"/></g>
<g><path style="opacity:0.612" fill="#b7e5ff" d="M 955.5,113.5 C 954.968,116.46 954.301,116.793 953.5,114.5C 954.167,114.167 954.833,113.833 955.5,113.5 Z"/></g>
<g><path style="opacity:0.882" fill="#96d8ff" d="M 333.5,127.5 C 332.833,130.167 331.167,131.833 328.5,132.5C 329.833,130.5 331.5,128.833 333.5,127.5 Z"/></g>
</svg>
